<?xml version="1.0" encoding="UTF-8" standalone="no"?>
<!DOCTYPE svg PUBLIC "-//W3C//DTD SVG 1.1//EN"
 "http://www.w3.org/Graphics/SVG/1.1/DTD/svg11.dtd">
<!-- Generated by graphviz version 2.48.0 (20210717.2242)
 -->
<!-- Title: snakemake_dag Pages: 1 -->
<svg width="3995pt" height="260pt"
 viewBox="0.00 0.00 3994.50 260.00" xmlns="http://www.w3.org/2000/svg" xmlns:xlink="http://www.w3.org/1999/xlink">
<g id="graph0" class="graph" transform="scale(1 1) rotate(0) translate(4 256)">
<title>snakemake_dag</title>
<polygon fill="white" stroke="transparent" points="-4,4 -4,-256 3990.5,-256 3990.5,4 -4,4"/>
<!-- 0 -->
<g id="node1" class="node">
<title>0</title>
<path fill="none" stroke="#ced856" stroke-width="2" stroke-dasharray="5,2" d="M1975,-36C1975,-36 1883,-36 1883,-36 1877,-36 1871,-30 1871,-24 1871,-24 1871,-12 1871,-12 1871,-6 1877,0 1883,0 1883,0 1975,0 1975,0 1981,0 1987,-6 1987,-12 1987,-12 1987,-24 1987,-24 1987,-30 1981,-36 1975,-36"/>
<text text-anchor="middle" x="1929" y="-15.5" font-family="sans" font-size="10.00">append_annotations</text>
</g>
<!-- 1 -->
<g id="node2" class="node">
<title>1</title>
<path fill="none" stroke="#56d89a" stroke-width="2" stroke-dasharray="5,2" d="M58,-108C58,-108 12,-108 12,-108 6,-108 0,-102 0,-96 0,-96 0,-84 0,-84 0,-78 6,-72 12,-72 12,-72 58,-72 58,-72 64,-72 70,-78 70,-84 70,-84 70,-96 70,-96 70,-102 64,-108 58,-108"/>
<text text-anchor="middle" x="35" y="-87.5" font-family="sans" font-size="10.00">orthofinder</text>
</g>
<!-- 1&#45;&gt;0 -->
<g id="edge1" class="edge">
<title>1&#45;&gt;0</title>
<path fill="none" stroke="grey" stroke-width="2" d="M70.23,-74.2C73.16,-73.34 76.11,-72.58 79,-72 255.85,-36.4 1546.1,-22.47 1860.21,-19.59"/>
<polygon fill="grey" stroke="grey" stroke-width="2" points="1860.56,-23.09 1870.53,-19.5 1860.5,-16.09 1860.56,-23.09"/>
</g>
<!-- 2 -->
<g id="node3" class="node">
<title>2</title>
<path fill="none" stroke="#56d86b" stroke-width="2" stroke-dasharray="5,2" d="M1944,-180C1944,-180 1914,-180 1914,-180 1908,-180 1902,-174 1902,-168 1902,-168 1902,-156 1902,-156 1902,-150 1908,-144 1914,-144 1914,-144 1944,-144 1944,-144 1950,-144 1956,-150 1956,-156 1956,-156 1956,-168 1956,-168 1956,-174 1950,-180 1944,-180"/>
<text text-anchor="middle" x="1929" y="-159.5" font-family="sans" font-size="10.00">gunzip</text>
</g>
<!-- 2&#45;&gt;1 -->
<g id="edge24" class="edge">
<title>2&#45;&gt;1</title>
<path fill="none" stroke="grey" stroke-width="2" d="M1901.68,-160.78C1689.64,-158.97 309.35,-145.91 80.26,-107.64"/>
<polygon fill="grey" stroke="grey" stroke-width="2" points="80.7,-104.16 70.23,-105.8 79.43,-111.05 80.7,-104.16"/>
</g>
<!-- 23 -->
<g id="node24" class="node">
<title>23</title>
<path fill="none" stroke="#5682d8" stroke-width="2" stroke-dasharray="5,2" d="M2582,-108C2582,-108 2406,-108 2406,-108 2400,-108 2394,-102 2394,-96 2394,-96 2394,-84 2394,-84 2394,-78 2400,-72 2406,-72 2406,-72 2582,-72 2582,-72 2588,-72 2594,-78 2594,-84 2594,-84 2594,-96 2594,-96 2594,-102 2588,-108 2582,-108"/>
<text text-anchor="middle" x="2494" y="-93" font-family="sans" font-size="10.00">emapper_annotate</text>
<text text-anchor="middle" x="2494" y="-82" font-family="sans" font-size="10.00">species: Amphimedon_queenslandica</text>
</g>
<!-- 2&#45;&gt;23 -->
<g id="edge45" class="edge">
<title>2&#45;&gt;23</title>
<path fill="none" stroke="grey" stroke-width="2" d="M1956.01,-153.36C1968.66,-150.03 1984.01,-146.36 1998,-144 2165.09,-115.81 2211.81,-128.8 2383.79,-108.09"/>
<polygon fill="grey" stroke="grey" stroke-width="2" points="2384.45,-111.54 2393.95,-106.85 2383.6,-104.59 2384.45,-111.54"/>
</g>
<!-- 25 -->
<g id="node26" class="node">
<title>25</title>
<path fill="none" stroke="#5682d8" stroke-width="2" stroke-dasharray="5,2" d="M2764,-108C2764,-108 2624,-108 2624,-108 2618,-108 2612,-102 2612,-96 2612,-96 2612,-84 2612,-84 2612,-78 2618,-72 2624,-72 2624,-72 2764,-72 2764,-72 2770,-72 2776,-78 2776,-84 2776,-84 2776,-96 2776,-96 2776,-102 2770,-108 2764,-108"/>
<text text-anchor="middle" x="2694" y="-93" font-family="sans" font-size="10.00">emapper_annotate</text>
<text text-anchor="middle" x="2694" y="-82" font-family="sans" font-size="10.00">species: Caerhabditis_elegans</text>
</g>
<!-- 2&#45;&gt;25 -->
<g id="edge47" class="edge">
<title>2&#45;&gt;25</title>
<path fill="none" stroke="grey" stroke-width="2" d="M1956.3,-153.06C1968.89,-149.71 1984.09,-146.11 1998,-144 2261.07,-104.11 2333.87,-139.9 2601.71,-108.06"/>
<polygon fill="grey" stroke="grey" stroke-width="2" points="2602.22,-111.52 2611.73,-106.85 2601.38,-104.57 2602.22,-111.52"/>
</g>
<!-- 26 -->
<g id="node27" class="node">
<title>26</title>
<path fill="none" stroke="#5682d8" stroke-width="2" stroke-dasharray="5,2" d="M2919.5,-108C2919.5,-108 2806.5,-108 2806.5,-108 2800.5,-108 2794.5,-102 2794.5,-96 2794.5,-96 2794.5,-84 2794.5,-84 2794.5,-78 2800.5,-72 2806.5,-72 2806.5,-72 2919.5,-72 2919.5,-72 2925.5,-72 2931.5,-78 2931.5,-84 2931.5,-84 2931.5,-96 2931.5,-96 2931.5,-102 2925.5,-108 2919.5,-108"/>
<text text-anchor="middle" x="2863" y="-93" font-family="sans" font-size="10.00">emapper_annotate</text>
<text text-anchor="middle" x="2863" y="-82" font-family="sans" font-size="10.00">species: Capitella_teleta</text>
</g>
<!-- 2&#45;&gt;26 -->
<g id="edge49" class="edge">
<title>2&#45;&gt;26</title>
<path fill="none" stroke="grey" stroke-width="2" d="M1956.29,-152.97C1968.87,-149.6 1984.08,-146.01 1998,-144 2341.24,-94.36 2436.02,-152.32 2784.1,-107.96"/>
<polygon fill="grey" stroke="grey" stroke-width="2" points="2784.74,-111.41 2794.21,-106.65 2783.84,-104.47 2784.74,-111.41"/>
</g>
<!-- 27 -->
<g id="node28" class="node">
<title>27</title>
<path fill="none" stroke="#5682d8" stroke-width="2" stroke-dasharray="5,2" d="M3102.5,-108C3102.5,-108 2961.5,-108 2961.5,-108 2955.5,-108 2949.5,-102 2949.5,-96 2949.5,-96 2949.5,-84 2949.5,-84 2949.5,-78 2955.5,-72 2961.5,-72 2961.5,-72 3102.5,-72 3102.5,-72 3108.5,-72 3114.5,-78 3114.5,-84 3114.5,-84 3114.5,-96 3114.5,-96 3114.5,-102 3108.5,-108 3102.5,-108"/>
<text text-anchor="middle" x="3032" y="-93" font-family="sans" font-size="10.00">emapper_annotate</text>
<text text-anchor="middle" x="3032" y="-82" font-family="sans" font-size="10.00">species: Clytia_hemisphaerica</text>
</g>
<!-- 2&#45;&gt;27 -->
<g id="edge51" class="edge">
<title>2&#45;&gt;27</title>
<path fill="none" stroke="grey" stroke-width="2" d="M1956.28,-152.92C1968.87,-149.55 1984.07,-145.96 1998,-144 2409.97,-86 2522.38,-153.53 2939.04,-108.12"/>
<polygon fill="grey" stroke="grey" stroke-width="2" points="2939.7,-111.57 2949.25,-106.99 2938.93,-104.61 2939.7,-111.57"/>
</g>
<!-- 28 -->
<g id="node29" class="node">
<title>28</title>
<path fill="none" stroke="#5682d8" stroke-width="2" stroke-dasharray="5,2" d="M3285,-108C3285,-108 3145,-108 3145,-108 3139,-108 3133,-102 3133,-96 3133,-96 3133,-84 3133,-84 3133,-78 3139,-72 3145,-72 3145,-72 3285,-72 3285,-72 3291,-72 3297,-78 3297,-84 3297,-84 3297,-96 3297,-96 3297,-102 3291,-108 3285,-108"/>
<text text-anchor="middle" x="3215" y="-93" font-family="sans" font-size="10.00">emapper_annotate</text>
<text text-anchor="middle" x="3215" y="-82" font-family="sans" font-size="10.00">species: Crassostrea_virginica</text>
</g>
<!-- 2&#45;&gt;28 -->
<g id="edge53" class="edge">
<title>2&#45;&gt;28</title>
<path fill="none" stroke="grey" stroke-width="2" d="M1956.28,-152.88C1968.86,-149.5 1984.07,-145.92 1998,-144 2490.76,-76.19 2624.48,-161 3122.78,-108.02"/>
<polygon fill="grey" stroke="grey" stroke-width="2" points="3123.18,-111.5 3132.74,-106.95 3122.43,-104.54 3123.18,-111.5"/>
</g>
<!-- 29 -->
<g id="node30" class="node">
<title>29</title>
<path fill="none" stroke="#5682d8" stroke-width="2" stroke-dasharray="5,2" d="M3419,-108C3419,-108 3327,-108 3327,-108 3321,-108 3315,-102 3315,-96 3315,-96 3315,-84 3315,-84 3315,-78 3321,-72 3327,-72 3327,-72 3419,-72 3419,-72 3425,-72 3431,-78 3431,-84 3431,-84 3431,-96 3431,-96 3431,-102 3425,-108 3419,-108"/>
<text text-anchor="middle" x="3373" y="-93" font-family="sans" font-size="10.00">emapper_annotate</text>
<text text-anchor="middle" x="3373" y="-82" font-family="sans" font-size="10.00">species: Danio_rerio</text>
</g>
<!-- 2&#45;&gt;29 -->
<g id="edge55" class="edge">
<title>2&#45;&gt;29</title>
<path fill="none" stroke="grey" stroke-width="2" d="M1956.27,-152.85C1968.86,-149.46 1984.06,-145.89 1998,-144 2570.92,-66.45 2728.14,-186.58 3304.45,-108.01"/>
<polygon fill="grey" stroke="grey" stroke-width="2" points="3305.26,-111.44 3314.68,-106.6 3304.3,-104.5 3305.26,-111.44"/>
</g>
<!-- 30 -->
<g id="node31" class="node">
<title>30</title>
<path fill="none" stroke="#5682d8" stroke-width="2" stroke-dasharray="5,2" d="M3622.5,-108C3622.5,-108 3461.5,-108 3461.5,-108 3455.5,-108 3449.5,-102 3449.5,-96 3449.5,-96 3449.5,-84 3449.5,-84 3449.5,-78 3455.5,-72 3461.5,-72 3461.5,-72 3622.5,-72 3622.5,-72 3628.5,-72 3634.5,-78 3634.5,-84 3634.5,-84 3634.5,-96 3634.5,-96 3634.5,-102 3628.5,-108 3622.5,-108"/>
<text text-anchor="middle" x="3542" y="-93" font-family="sans" font-size="10.00">emapper_annotate</text>
<text text-anchor="middle" x="3542" y="-82" font-family="sans" font-size="10.00">species: Drosophila_melanogaster</text>
</g>
<!-- 2&#45;&gt;30 -->
<g id="edge57" class="edge">
<title>2&#45;&gt;30</title>
<path fill="none" stroke="grey" stroke-width="2" d="M1956.27,-152.84C1968.85,-149.44 1984.06,-145.87 1998,-144 2629.99,-59.28 2799.98,-167.67 3438.84,-108.01"/>
<polygon fill="grey" stroke="grey" stroke-width="2" points="3439.61,-111.45 3449.23,-107.03 3438.95,-104.48 3439.61,-111.45"/>
</g>
<!-- 31 -->
<g id="node32" class="node">
<title>31</title>
<path fill="none" stroke="#5682d8" stroke-width="2" stroke-dasharray="5,2" d="M3771.5,-108C3771.5,-108 3664.5,-108 3664.5,-108 3658.5,-108 3652.5,-102 3652.5,-96 3652.5,-96 3652.5,-84 3652.5,-84 3652.5,-78 3658.5,-72 3664.5,-72 3664.5,-72 3771.5,-72 3771.5,-72 3777.5,-72 3783.5,-78 3783.5,-84 3783.5,-84 3783.5,-96 3783.5,-96 3783.5,-102 3777.5,-108 3771.5,-108"/>
<text text-anchor="middle" x="3718" y="-93" font-family="sans" font-size="10.00">emapper_annotate</text>
<text text-anchor="middle" x="3718" y="-82" font-family="sans" font-size="10.00">species: Homo_sapiens</text>
</g>
<!-- 2&#45;&gt;31 -->
<g id="edge59" class="edge">
<title>2&#45;&gt;31</title>
<path fill="none" stroke="grey" stroke-width="2" d="M1956.27,-152.82C1968.85,-149.42 1984.06,-145.85 1998,-144 2720.03,-48.34 2916.06,-197 3642.17,-108.07"/>
<polygon fill="grey" stroke="grey" stroke-width="2" points="3642.86,-111.51 3652.36,-106.81 3642,-104.56 3642.86,-111.51"/>
</g>
<!-- 32 -->
<g id="node33" class="node">
<title>32</title>
<path fill="none" stroke="#5682d8" stroke-width="2" stroke-dasharray="5,2" d="M3974.5,-108C3974.5,-108 3813.5,-108 3813.5,-108 3807.5,-108 3801.5,-102 3801.5,-96 3801.5,-96 3801.5,-84 3801.5,-84 3801.5,-78 3807.5,-72 3813.5,-72 3813.5,-72 3974.5,-72 3974.5,-72 3980.5,-72 3986.5,-78 3986.5,-84 3986.5,-84 3986.5,-96 3986.5,-96 3986.5,-102 3980.5,-108 3974.5,-108"/>
<text text-anchor="middle" x="3894" y="-93" font-family="sans" font-size="10.00">emapper_annotate</text>
<text text-anchor="middle" x="3894" y="-82" font-family="sans" font-size="10.00">species: Hormiphora_californensis</text>
</g>
<!-- 2&#45;&gt;32 -->
<g id="edge61" class="edge">
<title>2&#45;&gt;32</title>
<path fill="none" stroke="grey" stroke-width="2" d="M1956.27,-152.8C1968.85,-149.41 1984.06,-145.83 1998,-144 2390.28,-92.39 3379.17,-144.33 3791.11,-108.07"/>
<polygon fill="grey" stroke="grey" stroke-width="2" points="3791.69,-111.53 3801.33,-107.14 3791.06,-104.56 3791.69,-111.53"/>
</g>
<!-- 33 -->
<g id="node34" class="node">
<title>33</title>
<path fill="none" stroke="#5682d8" stroke-width="2" stroke-dasharray="5,2" d="M209.5,-108C209.5,-108 100.5,-108 100.5,-108 94.5,-108 88.5,-102 88.5,-96 88.5,-96 88.5,-84 88.5,-84 88.5,-78 94.5,-72 100.5,-72 100.5,-72 209.5,-72 209.5,-72 215.5,-72 221.5,-78 221.5,-84 221.5,-84 221.5,-96 221.5,-96 221.5,-102 215.5,-108 209.5,-108"/>
<text text-anchor="middle" x="155" y="-93" font-family="sans" font-size="10.00">emapper_annotate</text>
<text text-anchor="middle" x="155" y="-82" font-family="sans" font-size="10.00">species: Hydra_vulgaris</text>
</g>
<!-- 2&#45;&gt;33 -->
<g id="edge63" class="edge">
<title>2&#45;&gt;33</title>
<path fill="none" stroke="grey" stroke-width="2" d="M1901.72,-160.87C1712.6,-159.83 593.89,-151.94 231.52,-108.02"/>
<polygon fill="grey" stroke="grey" stroke-width="2" points="231.89,-104.54 221.54,-106.78 231.03,-111.49 231.89,-104.54"/>
</g>
<!-- 34 -->
<g id="node35" class="node">
<title>34</title>
<path fill="none" stroke="#5682d8" stroke-width="2" stroke-dasharray="5,2" d="M440.5,-108C440.5,-108 251.5,-108 251.5,-108 245.5,-108 239.5,-102 239.5,-96 239.5,-96 239.5,-84 239.5,-84 239.5,-78 245.5,-72 251.5,-72 251.5,-72 440.5,-72 440.5,-72 446.5,-72 452.5,-78 452.5,-84 452.5,-84 452.5,-96 452.5,-96 452.5,-102 446.5,-108 440.5,-108"/>
<text text-anchor="middle" x="346" y="-93" font-family="sans" font-size="10.00">emapper_annotate</text>
<text text-anchor="middle" x="346" y="-82" font-family="sans" font-size="10.00">species: Hydractinia_symbiolongicarpus</text>
</g>
<!-- 2&#45;&gt;34 -->
<g id="edge65" class="edge">
<title>2&#45;&gt;34</title>
<path fill="none" stroke="grey" stroke-width="2" d="M1901.91,-161.14C1756.08,-161.65 1049.65,-161.21 463.13,-108.14"/>
<polygon fill="grey" stroke="grey" stroke-width="2" points="463.05,-104.62 452.77,-107.19 462.41,-111.59 463.05,-104.62"/>
</g>
<!-- 35 -->
<g id="node36" class="node">
<title>35</title>
<path fill="none" stroke="#5682d8" stroke-width="2" stroke-dasharray="5,2" d="M593.5,-108C593.5,-108 482.5,-108 482.5,-108 476.5,-108 470.5,-102 470.5,-96 470.5,-96 470.5,-84 470.5,-84 470.5,-78 476.5,-72 482.5,-72 482.5,-72 593.5,-72 593.5,-72 599.5,-72 605.5,-78 605.5,-84 605.5,-84 605.5,-96 605.5,-96 605.5,-102 599.5,-108 593.5,-108"/>
<text text-anchor="middle" x="538" y="-93" font-family="sans" font-size="10.00">emapper_annotate</text>
<text text-anchor="middle" x="538" y="-82" font-family="sans" font-size="10.00">species: Lottia_gigantea</text>
</g>
<!-- 2&#45;&gt;35 -->
<g id="edge67" class="edge">
<title>2&#45;&gt;35</title>
<path fill="none" stroke="grey" stroke-width="2" d="M1901.87,-160.56C1739.83,-157.84 897.71,-142.29 616.09,-107.96"/>
<polygon fill="grey" stroke="grey" stroke-width="2" points="616.26,-104.45 605.91,-106.68 615.39,-111.4 616.26,-104.45"/>
</g>
<!-- 36 -->
<g id="node37" class="node">
<title>36</title>
<path fill="none" stroke="#5682d8" stroke-width="2" stroke-dasharray="5,2" d="M774,-108C774,-108 636,-108 636,-108 630,-108 624,-102 624,-96 624,-96 624,-84 624,-84 624,-78 630,-72 636,-72 636,-72 774,-72 774,-72 780,-72 786,-78 786,-84 786,-84 786,-96 786,-96 786,-102 780,-108 774,-108"/>
<text text-anchor="middle" x="705" y="-93" font-family="sans" font-size="10.00">emapper_annotate</text>
<text text-anchor="middle" x="705" y="-82" font-family="sans" font-size="10.00">species: Monosiga_brevicollis</text>
</g>
<!-- 2&#45;&gt;36 -->
<g id="edge69" class="edge">
<title>2&#45;&gt;36</title>
<path fill="none" stroke="grey" stroke-width="2" d="M1901.68,-161.13C1776.2,-161.44 1242.62,-159.55 796.55,-108.08"/>
<polygon fill="grey" stroke="grey" stroke-width="2" points="796.69,-104.58 786.36,-106.9 795.88,-111.53 796.69,-104.58"/>
</g>
<!-- 37 -->
<g id="node38" class="node">
<title>37</title>
<path fill="none" stroke="#5682d8" stroke-width="2" stroke-dasharray="5,2" d="M948,-108C948,-108 816,-108 816,-108 810,-108 804,-102 804,-96 804,-96 804,-84 804,-84 804,-78 810,-72 816,-72 816,-72 948,-72 948,-72 954,-72 960,-78 960,-84 960,-84 960,-96 960,-96 960,-102 954,-108 948,-108"/>
<text text-anchor="middle" x="882" y="-93" font-family="sans" font-size="10.00">emapper_annotate</text>
<text text-anchor="middle" x="882" y="-82" font-family="sans" font-size="10.00">species: Morbakka_virulenta</text>
</g>
<!-- 2&#45;&gt;37 -->
<g id="edge71" class="edge">
<title>2&#45;&gt;37</title>
<path fill="none" stroke="grey" stroke-width="2" d="M1901.77,-160.87C1788.59,-160.03 1344.21,-153.91 970.11,-108.03"/>
<polygon fill="grey" stroke="grey" stroke-width="2" points="970.53,-104.56 960.17,-106.8 969.67,-111.5 970.53,-104.56"/>
</g>
<!-- 38 -->
<g id="node39" class="node">
<title>38</title>
<path fill="none" stroke="#5682d8" stroke-width="2" stroke-dasharray="5,2" d="M1097.5,-108C1097.5,-108 990.5,-108 990.5,-108 984.5,-108 978.5,-102 978.5,-96 978.5,-96 978.5,-84 978.5,-84 978.5,-78 984.5,-72 990.5,-72 990.5,-72 1097.5,-72 1097.5,-72 1103.5,-72 1109.5,-78 1109.5,-84 1109.5,-84 1109.5,-96 1109.5,-96 1109.5,-102 1103.5,-108 1097.5,-108"/>
<text text-anchor="middle" x="1044" y="-93" font-family="sans" font-size="10.00">emapper_annotate</text>
<text text-anchor="middle" x="1044" y="-82" font-family="sans" font-size="10.00">species: Mus_musculus</text>
</g>
<!-- 2&#45;&gt;38 -->
<g id="edge73" class="edge">
<title>2&#45;&gt;38</title>
<path fill="none" stroke="grey" stroke-width="2" d="M1901.88,-160.8C1800.14,-159.74 1431.43,-152.91 1119.8,-108.13"/>
<polygon fill="grey" stroke="grey" stroke-width="2" points="1120.06,-104.64 1109.66,-106.66 1119.06,-111.56 1120.06,-104.64"/>
</g>
<!-- 39 -->
<g id="node40" class="node">
<title>39</title>
<path fill="none" stroke="#5682d8" stroke-width="2" stroke-dasharray="5,2" d="M1254.5,-108C1254.5,-108 1139.5,-108 1139.5,-108 1133.5,-108 1127.5,-102 1127.5,-96 1127.5,-96 1127.5,-84 1127.5,-84 1127.5,-78 1133.5,-72 1139.5,-72 1139.5,-72 1254.5,-72 1254.5,-72 1260.5,-72 1266.5,-78 1266.5,-84 1266.5,-84 1266.5,-96 1266.5,-96 1266.5,-102 1260.5,-108 1254.5,-108"/>
<text text-anchor="middle" x="1197" y="-93" font-family="sans" font-size="10.00">emapper_annotate</text>
<text text-anchor="middle" x="1197" y="-82" font-family="sans" font-size="10.00">species: Nanomia_bijuga</text>
</g>
<!-- 2&#45;&gt;39 -->
<g id="edge75" class="edge">
<title>2&#45;&gt;39</title>
<path fill="none" stroke="grey" stroke-width="2" d="M1901.75,-160.1C1813,-156.88 1524.16,-144.26 1276.56,-108.13"/>
<polygon fill="grey" stroke="grey" stroke-width="2" points="1277.06,-104.66 1266.66,-106.66 1276.04,-111.59 1277.06,-104.66"/>
</g>
<!-- 40 -->
<g id="node41" class="node">
<title>40</title>
<path fill="none" stroke="#5682d8" stroke-width="2" stroke-dasharray="5,2" d="M1449.5,-108C1449.5,-108 1296.5,-108 1296.5,-108 1290.5,-108 1284.5,-102 1284.5,-96 1284.5,-96 1284.5,-84 1284.5,-84 1284.5,-78 1290.5,-72 1296.5,-72 1296.5,-72 1449.5,-72 1449.5,-72 1455.5,-72 1461.5,-78 1461.5,-84 1461.5,-84 1461.5,-96 1461.5,-96 1461.5,-102 1455.5,-108 1449.5,-108"/>
<text text-anchor="middle" x="1373" y="-93" font-family="sans" font-size="10.00">emapper_annotate</text>
<text text-anchor="middle" x="1373" y="-82" font-family="sans" font-size="10.00">species: Nematostella_vectensis</text>
</g>
<!-- 2&#45;&gt;40 -->
<g id="edge77" class="edge">
<title>2&#45;&gt;40</title>
<path fill="none" stroke="grey" stroke-width="2" d="M1901.83,-158.4C1832.22,-151.62 1641.64,-132.32 1471.76,-108.06"/>
<polygon fill="grey" stroke="grey" stroke-width="2" points="1472.03,-104.57 1461.64,-106.61 1471.04,-111.49 1472.03,-104.57"/>
</g>
<!-- 41 -->
<g id="node42" class="node">
<title>41</title>
<path fill="none" stroke="#5682d8" stroke-width="2" stroke-dasharray="5,2" d="M1638,-108C1638,-108 1492,-108 1492,-108 1486,-108 1480,-102 1480,-96 1480,-96 1480,-84 1480,-84 1480,-78 1486,-72 1492,-72 1492,-72 1638,-72 1638,-72 1644,-72 1650,-78 1650,-84 1650,-84 1650,-96 1650,-96 1650,-102 1644,-108 1638,-108"/>
<text text-anchor="middle" x="1565" y="-93" font-family="sans" font-size="10.00">emapper_annotate</text>
<text text-anchor="middle" x="1565" y="-82" font-family="sans" font-size="10.00">species: Octopus_bimaculoides</text>
</g>
<!-- 2&#45;&gt;41 -->
<g id="edge79" class="edge">
<title>2&#45;&gt;41</title>
<path fill="none" stroke="grey" stroke-width="2" d="M1901.94,-155.8C1851.54,-146.1 1741.08,-124.86 1660.32,-109.33"/>
<polygon fill="grey" stroke="grey" stroke-width="2" points="1660.61,-105.82 1650.13,-107.37 1659.29,-112.7 1660.61,-105.82"/>
</g>
<!-- 42 -->
<g id="node43" class="node">
<title>42</title>
<path fill="none" stroke="#5682d8" stroke-width="2" stroke-dasharray="5,2" d="M1811.5,-108C1811.5,-108 1680.5,-108 1680.5,-108 1674.5,-108 1668.5,-102 1668.5,-96 1668.5,-96 1668.5,-84 1668.5,-84 1668.5,-78 1674.5,-72 1680.5,-72 1680.5,-72 1811.5,-72 1811.5,-72 1817.5,-72 1823.5,-78 1823.5,-84 1823.5,-84 1823.5,-96 1823.5,-96 1823.5,-102 1817.5,-108 1811.5,-108"/>
<text text-anchor="middle" x="1746" y="-93" font-family="sans" font-size="10.00">emapper_annotate</text>
<text text-anchor="middle" x="1746" y="-82" font-family="sans" font-size="10.00">species: Orbicella_faveolata</text>
</g>
<!-- 2&#45;&gt;42 -->
<g id="edge81" class="edge">
<title>2&#45;&gt;42</title>
<path fill="none" stroke="grey" stroke-width="2" d="M1902,-150.67C1875.3,-140.46 1833.71,-124.55 1800.18,-111.72"/>
<polygon fill="grey" stroke="grey" stroke-width="2" points="1801.1,-108.33 1790.51,-108.02 1798.6,-114.87 1801.1,-108.33"/>
</g>
<!-- 43 -->
<g id="node44" class="node">
<title>43</title>
<path fill="none" stroke="#5682d8" stroke-width="2" stroke-dasharray="5,2" d="M2004,-108C2004,-108 1854,-108 1854,-108 1848,-108 1842,-102 1842,-96 1842,-96 1842,-84 1842,-84 1842,-78 1848,-72 1854,-72 1854,-72 2004,-72 2004,-72 2010,-72 2016,-78 2016,-84 2016,-84 2016,-96 2016,-96 2016,-102 2010,-108 2004,-108"/>
<text text-anchor="middle" x="1929" y="-93" font-family="sans" font-size="10.00">emapper_annotate</text>
<text text-anchor="middle" x="1929" y="-82" font-family="sans" font-size="10.00">species: Rhopilema_esculentum</text>
</g>
<!-- 2&#45;&gt;43 -->
<g id="edge83" class="edge">
<title>2&#45;&gt;43</title>
<path fill="none" stroke="grey" stroke-width="2" d="M1929,-143.7C1929,-135.98 1929,-126.71 1929,-118.11"/>
<polygon fill="grey" stroke="grey" stroke-width="2" points="1932.5,-118.1 1929,-108.1 1925.5,-118.1 1932.5,-118.1"/>
</g>
<!-- 44 -->
<g id="node45" class="node">
<title>44</title>
<path fill="none" stroke="#5682d8" stroke-width="2" stroke-dasharray="5,2" d="M2180,-108C2180,-108 2046,-108 2046,-108 2040,-108 2034,-102 2034,-96 2034,-96 2034,-84 2034,-84 2034,-78 2040,-72 2046,-72 2046,-72 2180,-72 2180,-72 2186,-72 2192,-78 2192,-84 2192,-84 2192,-96 2192,-96 2192,-102 2186,-108 2180,-108"/>
<text text-anchor="middle" x="2113" y="-93" font-family="sans" font-size="10.00">emapper_annotate</text>
<text text-anchor="middle" x="2113" y="-82" font-family="sans" font-size="10.00">species: Salpingoeca_rosetta</text>
</g>
<!-- 2&#45;&gt;44 -->
<g id="edge85" class="edge">
<title>2&#45;&gt;44</title>
<path fill="none" stroke="grey" stroke-width="2" d="M1956.15,-150.67C1982.99,-140.46 2024.81,-124.55 2058.53,-111.72"/>
<polygon fill="grey" stroke="grey" stroke-width="2" points="2060.15,-114.85 2068.25,-108.02 2057.66,-108.31 2060.15,-114.85"/>
</g>
<!-- 45 -->
<g id="node46" class="node">
<title>45</title>
<path fill="none" stroke="#5682d8" stroke-width="2" stroke-dasharray="5,2" d="M2363.5,-108C2363.5,-108 2222.5,-108 2222.5,-108 2216.5,-108 2210.5,-102 2210.5,-96 2210.5,-96 2210.5,-84 2210.5,-84 2210.5,-78 2216.5,-72 2222.5,-72 2222.5,-72 2363.5,-72 2363.5,-72 2369.5,-72 2375.5,-78 2375.5,-84 2375.5,-84 2375.5,-96 2375.5,-96 2375.5,-102 2369.5,-108 2363.5,-108"/>
<text text-anchor="middle" x="2293" y="-93" font-family="sans" font-size="10.00">emapper_annotate</text>
<text text-anchor="middle" x="2293" y="-82" font-family="sans" font-size="10.00">species: Trichoplax_adhaerens</text>
</g>
<!-- 2&#45;&gt;45 -->
<g id="edge87" class="edge">
<title>2&#45;&gt;45</title>
<path fill="none" stroke="grey" stroke-width="2" d="M1956.11,-153.88C1968.79,-150.67 1984.12,-146.94 1998,-144 2084.58,-125.68 2109.17,-124.39 2200.32,-108.11"/>
<polygon fill="grey" stroke="grey" stroke-width="2" points="2201.03,-111.53 2210.25,-106.32 2199.79,-104.65 2201.03,-111.53"/>
</g>
<!-- 3 -->
<g id="node4" class="node">
<title>3</title>
<path fill="none" stroke="#d88556" stroke-width="2" stroke-dasharray="5,2" d="M332,-252C332,-252 240,-252 240,-252 234,-252 228,-246 228,-240 228,-240 228,-228 228,-228 228,-222 234,-216 240,-216 240,-216 332,-216 332,-216 338,-216 344,-222 344,-228 344,-228 344,-240 344,-240 344,-246 338,-252 332,-252"/>
<text text-anchor="middle" x="286" y="-237" font-family="sans" font-size="10.00">get_ensembl</text>
<text text-anchor="middle" x="286" y="-226" font-family="sans" font-size="10.00">species: Danio_rerio</text>
</g>
<!-- 3&#45;&gt;2 -->
<g id="edge25" class="edge">
<title>3&#45;&gt;2</title>
<path fill="none" stroke="grey" stroke-width="2" d="M344.32,-217.42C347.24,-216.88 350.15,-216.4 353,-216 664.04,-171.83 1684.08,-164.26 1891.86,-163.17"/>
<polygon fill="grey" stroke="grey" stroke-width="2" points="1891.97,-166.67 1901.95,-163.11 1891.93,-159.67 1891.97,-166.67"/>
</g>
<!-- 4 -->
<g id="node5" class="node">
<title>4</title>
<path fill="none" stroke="#d88556" stroke-width="2" stroke-dasharray="5,2" d="M481.5,-252C481.5,-252 374.5,-252 374.5,-252 368.5,-252 362.5,-246 362.5,-240 362.5,-240 362.5,-228 362.5,-228 362.5,-222 368.5,-216 374.5,-216 374.5,-216 481.5,-216 481.5,-216 487.5,-216 493.5,-222 493.5,-228 493.5,-228 493.5,-240 493.5,-240 493.5,-246 487.5,-252 481.5,-252"/>
<text text-anchor="middle" x="428" y="-237" font-family="sans" font-size="10.00">get_ensembl</text>
<text text-anchor="middle" x="428" y="-226" font-family="sans" font-size="10.00">species: Homo_sapiens</text>
</g>
<!-- 4&#45;&gt;2 -->
<g id="edge26" class="edge">
<title>4&#45;&gt;2</title>
<path fill="none" stroke="grey" stroke-width="2" d="M493.65,-217.24C496.46,-216.78 499.26,-216.36 502,-216 782.25,-178.94 1695.64,-165.85 1891.72,-163.43"/>
<polygon fill="grey" stroke="grey" stroke-width="2" points="1891.85,-166.93 1901.8,-163.31 1891.76,-159.93 1891.85,-166.93"/>
</g>
<!-- 5 -->
<g id="node6" class="node">
<title>5</title>
<path fill="none" stroke="#d88556" stroke-width="2" stroke-dasharray="5,2" d="M630.5,-252C630.5,-252 523.5,-252 523.5,-252 517.5,-252 511.5,-246 511.5,-240 511.5,-240 511.5,-228 511.5,-228 511.5,-222 517.5,-216 523.5,-216 523.5,-216 630.5,-216 630.5,-216 636.5,-216 642.5,-222 642.5,-228 642.5,-228 642.5,-240 642.5,-240 642.5,-246 636.5,-252 630.5,-252"/>
<text text-anchor="middle" x="577" y="-237" font-family="sans" font-size="10.00">get_ensembl</text>
<text text-anchor="middle" x="577" y="-226" font-family="sans" font-size="10.00">species: Mus_musculus</text>
</g>
<!-- 5&#45;&gt;2 -->
<g id="edge27" class="edge">
<title>5&#45;&gt;2</title>
<path fill="none" stroke="grey" stroke-width="2" d="M642.73,-217.39C645.85,-216.87 648.96,-216.4 652,-216 900.95,-182.9 1708.1,-166.9 1891.63,-163.64"/>
<polygon fill="grey" stroke="grey" stroke-width="2" points="1891.91,-167.13 1901.85,-163.46 1891.79,-160.13 1891.91,-167.13"/>
</g>
<!-- 6 -->
<g id="node7" class="node">
<title>6</title>
<path fill="none" stroke="#d85656" stroke-width="2" stroke-dasharray="5,2" d="M849,-252C849,-252 673,-252 673,-252 667,-252 661,-246 661,-240 661,-240 661,-228 661,-228 661,-222 667,-216 673,-216 673,-216 849,-216 849,-216 855,-216 861,-222 861,-228 861,-228 861,-240 861,-240 861,-246 855,-252 849,-252"/>
<text text-anchor="middle" x="761" y="-237" font-family="sans" font-size="10.00">get_ensemblgenomes</text>
<text text-anchor="middle" x="761" y="-226" font-family="sans" font-size="10.00">species: Amphimedon_queenslandica</text>
</g>
<!-- 6&#45;&gt;2 -->
<g id="edge28" class="edge">
<title>6&#45;&gt;2</title>
<path fill="none" stroke="grey" stroke-width="2" d="M861.03,-216.98C864.05,-216.63 867.05,-216.3 870,-216 1268.48,-175.07 1754.7,-165.43 1891.58,-163.46"/>
<polygon fill="grey" stroke="grey" stroke-width="2" points="1891.97,-166.95 1901.92,-163.31 1891.87,-159.95 1891.97,-166.95"/>
</g>
<!-- 7 -->
<g id="node8" class="node">
<title>7</title>
<path fill="none" stroke="#d85656" stroke-width="2" stroke-dasharray="5,2" d="M1031,-252C1031,-252 891,-252 891,-252 885,-252 879,-246 879,-240 879,-240 879,-228 879,-228 879,-222 885,-216 891,-216 891,-216 1031,-216 1031,-216 1037,-216 1043,-222 1043,-228 1043,-228 1043,-240 1043,-240 1043,-246 1037,-252 1031,-252"/>
<text text-anchor="middle" x="961" y="-237" font-family="sans" font-size="10.00">get_ensemblgenomes</text>
<text text-anchor="middle" x="961" y="-226" font-family="sans" font-size="10.00">species: Caerhabditis_elegans</text>
</g>
<!-- 7&#45;&gt;2 -->
<g id="edge29" class="edge">
<title>7&#45;&gt;2</title>
<path fill="none" stroke="grey" stroke-width="2" d="M1043.27,-217.16C1046.21,-216.74 1049.13,-216.35 1052,-216 1375.67,-176.14 1770.4,-165.89 1891.75,-163.6"/>
<polygon fill="grey" stroke="grey" stroke-width="2" points="1892.04,-167.09 1901.98,-163.41 1891.91,-160.09 1892.04,-167.09"/>
</g>
<!-- 8 -->
<g id="node9" class="node">
<title>8</title>
<path fill="none" stroke="#d85656" stroke-width="2" stroke-dasharray="5,2" d="M1186.5,-252C1186.5,-252 1073.5,-252 1073.5,-252 1067.5,-252 1061.5,-246 1061.5,-240 1061.5,-240 1061.5,-228 1061.5,-228 1061.5,-222 1067.5,-216 1073.5,-216 1073.5,-216 1186.5,-216 1186.5,-216 1192.5,-216 1198.5,-222 1198.5,-228 1198.5,-228 1198.5,-240 1198.5,-240 1198.5,-246 1192.5,-252 1186.5,-252"/>
<text text-anchor="middle" x="1130" y="-237" font-family="sans" font-size="10.00">get_ensemblgenomes</text>
<text text-anchor="middle" x="1130" y="-226" font-family="sans" font-size="10.00">species: Capitella_teleta</text>
</g>
<!-- 8&#45;&gt;2 -->
<g id="edge30" class="edge">
<title>8&#45;&gt;2</title>
<path fill="none" stroke="grey" stroke-width="2" d="M1198.76,-217.31C1201.54,-216.83 1204.29,-216.4 1207,-216 1467.3,-177.91 1784.61,-166.68 1891.69,-163.85"/>
<polygon fill="grey" stroke="grey" stroke-width="2" points="1892.06,-167.34 1901.97,-163.58 1891.88,-160.34 1892.06,-167.34"/>
</g>
<!-- 9 -->
<g id="node10" class="node">
<title>9</title>
<path fill="none" stroke="#d85656" stroke-width="2" stroke-dasharray="5,2" d="M1389.5,-252C1389.5,-252 1228.5,-252 1228.5,-252 1222.5,-252 1216.5,-246 1216.5,-240 1216.5,-240 1216.5,-228 1216.5,-228 1216.5,-222 1222.5,-216 1228.5,-216 1228.5,-216 1389.5,-216 1389.5,-216 1395.5,-216 1401.5,-222 1401.5,-228 1401.5,-228 1401.5,-240 1401.5,-240 1401.5,-246 1395.5,-252 1389.5,-252"/>
<text text-anchor="middle" x="1309" y="-237" font-family="sans" font-size="10.00">get_ensemblgenomes</text>
<text text-anchor="middle" x="1309" y="-226" font-family="sans" font-size="10.00">species: Drosophila_melanogaster</text>
</g>
<!-- 9&#45;&gt;2 -->
<g id="edge31" class="edge">
<title>9&#45;&gt;2</title>
<path fill="none" stroke="grey" stroke-width="2" d="M1401.7,-217.16C1404.5,-216.76 1407.27,-216.37 1410,-216 1590.08,-191.68 1806.67,-172.92 1891.94,-165.95"/>
<polygon fill="grey" stroke="grey" stroke-width="2" points="1892.23,-169.44 1901.91,-165.14 1891.66,-162.46 1892.23,-169.44"/>
</g>
<!-- 10 -->
<g id="node11" class="node">
<title>10</title>
<path fill="none" stroke="#d85656" stroke-width="2" stroke-dasharray="5,2" d="M1542.5,-252C1542.5,-252 1431.5,-252 1431.5,-252 1425.5,-252 1419.5,-246 1419.5,-240 1419.5,-240 1419.5,-228 1419.5,-228 1419.5,-222 1425.5,-216 1431.5,-216 1431.5,-216 1542.5,-216 1542.5,-216 1548.5,-216 1554.5,-222 1554.5,-228 1554.5,-228 1554.5,-240 1554.5,-240 1554.5,-246 1548.5,-252 1542.5,-252"/>
<text text-anchor="middle" x="1487" y="-237" font-family="sans" font-size="10.00">get_ensemblgenomes</text>
<text text-anchor="middle" x="1487" y="-226" font-family="sans" font-size="10.00">species: Lottia_gigantea</text>
</g>
<!-- 10&#45;&gt;2 -->
<g id="edge32" class="edge">
<title>10&#45;&gt;2</title>
<path fill="none" stroke="grey" stroke-width="2" d="M1554.55,-217.79C1557.74,-217.17 1560.9,-216.57 1564,-216 1683.28,-194.2 1825.82,-175.65 1891.93,-167.47"/>
<polygon fill="grey" stroke="grey" stroke-width="2" points="1892.38,-170.94 1901.87,-166.25 1891.52,-164 1892.38,-170.94"/>
</g>
<!-- 11 -->
<g id="node12" class="node">
<title>11</title>
<path fill="none" stroke="#d85656" stroke-width="2" stroke-dasharray="5,2" d="M1723,-252C1723,-252 1585,-252 1585,-252 1579,-252 1573,-246 1573,-240 1573,-240 1573,-228 1573,-228 1573,-222 1579,-216 1585,-216 1585,-216 1723,-216 1723,-216 1729,-216 1735,-222 1735,-228 1735,-228 1735,-240 1735,-240 1735,-246 1729,-252 1723,-252"/>
<text text-anchor="middle" x="1654" y="-237" font-family="sans" font-size="10.00">get_ensemblgenomes</text>
<text text-anchor="middle" x="1654" y="-226" font-family="sans" font-size="10.00">species: Monosiga_brevicollis</text>
</g>
<!-- 11&#45;&gt;2 -->
<g id="edge33" class="edge">
<title>11&#45;&gt;2</title>
<path fill="none" stroke="grey" stroke-width="2" d="M1720.92,-215.97C1774.64,-202.29 1848.09,-183.6 1891.82,-172.46"/>
<polygon fill="grey" stroke="grey" stroke-width="2" points="1892.92,-175.8 1901.74,-169.94 1891.19,-169.01 1892.92,-175.8"/>
</g>
<!-- 12 -->
<g id="node13" class="node">
<title>12</title>
<path fill="none" stroke="#d85656" stroke-width="2" stroke-dasharray="5,2" d="M1911,-252C1911,-252 1765,-252 1765,-252 1759,-252 1753,-246 1753,-240 1753,-240 1753,-228 1753,-228 1753,-222 1759,-216 1765,-216 1765,-216 1911,-216 1911,-216 1917,-216 1923,-222 1923,-228 1923,-228 1923,-240 1923,-240 1923,-246 1917,-252 1911,-252"/>
<text text-anchor="middle" x="1838" y="-237" font-family="sans" font-size="10.00">get_ensemblgenomes</text>
<text text-anchor="middle" x="1838" y="-226" font-family="sans" font-size="10.00">species: Octopus_bimaculoides</text>
</g>
<!-- 12&#45;&gt;2 -->
<g id="edge34" class="edge">
<title>12&#45;&gt;2</title>
<path fill="none" stroke="grey" stroke-width="2" d="M1860.49,-215.7C1871.96,-206.88 1886.06,-196.03 1898.48,-186.47"/>
<polygon fill="grey" stroke="grey" stroke-width="2" points="1900.97,-188.98 1906.76,-180.1 1896.7,-183.43 1900.97,-188.98"/>
</g>
<!-- 13 -->
<g id="node14" class="node">
<title>13</title>
<path fill="none" stroke="#d85656" stroke-width="2" stroke-dasharray="5,2" d="M2087,-252C2087,-252 1953,-252 1953,-252 1947,-252 1941,-246 1941,-240 1941,-240 1941,-228 1941,-228 1941,-222 1947,-216 1953,-216 1953,-216 2087,-216 2087,-216 2093,-216 2099,-222 2099,-228 2099,-228 2099,-240 2099,-240 2099,-246 2093,-252 2087,-252"/>
<text text-anchor="middle" x="2020" y="-237" font-family="sans" font-size="10.00">get_ensemblgenomes</text>
<text text-anchor="middle" x="2020" y="-226" font-family="sans" font-size="10.00">species: Salpingoeca_rosetta</text>
</g>
<!-- 13&#45;&gt;2 -->
<g id="edge35" class="edge">
<title>13&#45;&gt;2</title>
<path fill="none" stroke="grey" stroke-width="2" d="M1997.51,-215.7C1986.04,-206.88 1971.94,-196.03 1959.52,-186.47"/>
<polygon fill="grey" stroke="grey" stroke-width="2" points="1961.3,-183.43 1951.24,-180.1 1957.03,-188.98 1961.3,-183.43"/>
</g>
<!-- 14 -->
<g id="node15" class="node">
<title>14</title>
<path fill="none" stroke="#d85656" stroke-width="2" stroke-dasharray="5,2" d="M2270.5,-252C2270.5,-252 2129.5,-252 2129.5,-252 2123.5,-252 2117.5,-246 2117.5,-240 2117.5,-240 2117.5,-228 2117.5,-228 2117.5,-222 2123.5,-216 2129.5,-216 2129.5,-216 2270.5,-216 2270.5,-216 2276.5,-216 2282.5,-222 2282.5,-228 2282.5,-228 2282.5,-240 2282.5,-240 2282.5,-246 2276.5,-252 2270.5,-252"/>
<text text-anchor="middle" x="2200" y="-237" font-family="sans" font-size="10.00">get_ensemblgenomes</text>
<text text-anchor="middle" x="2200" y="-226" font-family="sans" font-size="10.00">species: Trichoplax_adhaerens</text>
</g>
<!-- 14&#45;&gt;2 -->
<g id="edge36" class="edge">
<title>14&#45;&gt;2</title>
<path fill="none" stroke="grey" stroke-width="2" d="M2134.05,-215.97C2081.26,-202.33 2009.13,-183.7 1965.99,-172.55"/>
<polygon fill="grey" stroke="grey" stroke-width="2" points="1966.76,-169.14 1956.2,-170.03 1965.01,-175.92 1966.76,-169.14"/>
</g>
<!-- 15 -->
<g id="node16" class="node">
<title>15</title>
<path fill="none" stroke="#d8b456" stroke-width="2" stroke-dasharray="5,2" d="M2453.5,-252C2453.5,-252 2312.5,-252 2312.5,-252 2306.5,-252 2300.5,-246 2300.5,-240 2300.5,-240 2300.5,-228 2300.5,-228 2300.5,-222 2306.5,-216 2312.5,-216 2312.5,-216 2453.5,-216 2453.5,-216 2459.5,-216 2465.5,-222 2465.5,-228 2465.5,-228 2465.5,-240 2465.5,-240 2465.5,-246 2459.5,-252 2453.5,-252"/>
<text text-anchor="middle" x="2383" y="-237" font-family="sans" font-size="10.00">get_other</text>
<text text-anchor="middle" x="2383" y="-226" font-family="sans" font-size="10.00">species: Clytia_hemisphaerica</text>
</g>
<!-- 15&#45;&gt;2 -->
<g id="edge37" class="edge">
<title>15&#45;&gt;2</title>
<path fill="none" stroke="grey" stroke-width="2" d="M2300.21,-217.31C2297.44,-216.85 2294.7,-216.42 2292,-216 2161.9,-195.9 2127.48,-203.79 1998,-180 1987.53,-178.08 1976.29,-175.52 1965.98,-172.97"/>
<polygon fill="grey" stroke="grey" stroke-width="2" points="1966.59,-169.52 1956.04,-170.46 1964.87,-176.31 1966.59,-169.52"/>
</g>
<!-- 16 -->
<g id="node17" class="node">
<title>16</title>
<path fill="none" stroke="#d8b456" stroke-width="2" stroke-dasharray="5,2" d="M2684.5,-252C2684.5,-252 2495.5,-252 2495.5,-252 2489.5,-252 2483.5,-246 2483.5,-240 2483.5,-240 2483.5,-228 2483.5,-228 2483.5,-222 2489.5,-216 2495.5,-216 2495.5,-216 2684.5,-216 2684.5,-216 2690.5,-216 2696.5,-222 2696.5,-228 2696.5,-228 2696.5,-240 2696.5,-240 2696.5,-246 2690.5,-252 2684.5,-252"/>
<text text-anchor="middle" x="2590" y="-237" font-family="sans" font-size="10.00">get_other</text>
<text text-anchor="middle" x="2590" y="-226" font-family="sans" font-size="10.00">species: Hydractinia_symbiolongicarpus</text>
</g>
<!-- 16&#45;&gt;2 -->
<g id="edge38" class="edge">
<title>16&#45;&gt;2</title>
<path fill="none" stroke="grey" stroke-width="2" d="M2483.21,-216.95C2480.45,-216.62 2477.71,-216.3 2475,-216 2263.71,-192.44 2207.94,-213.55 1998,-180 1987.58,-178.34 1976.43,-175.89 1966.19,-173.36"/>
<polygon fill="grey" stroke="grey" stroke-width="2" points="1966.87,-169.93 1956.32,-170.84 1965.14,-176.71 1966.87,-169.93"/>
</g>
<!-- 17 -->
<g id="node18" class="node">
<title>17</title>
<path fill="none" stroke="#d8b456" stroke-width="2" stroke-dasharray="5,2" d="M2879.5,-252C2879.5,-252 2726.5,-252 2726.5,-252 2720.5,-252 2714.5,-246 2714.5,-240 2714.5,-240 2714.5,-228 2714.5,-228 2714.5,-222 2720.5,-216 2726.5,-216 2726.5,-216 2879.5,-216 2879.5,-216 2885.5,-216 2891.5,-222 2891.5,-228 2891.5,-228 2891.5,-240 2891.5,-240 2891.5,-246 2885.5,-252 2879.5,-252"/>
<text text-anchor="middle" x="2803" y="-237" font-family="sans" font-size="10.00">get_other</text>
<text text-anchor="middle" x="2803" y="-226" font-family="sans" font-size="10.00">species: Nematostella_vectensis</text>
</g>
<!-- 17&#45;&gt;2 -->
<g id="edge39" class="edge">
<title>17&#45;&gt;2</title>
<path fill="none" stroke="grey" stroke-width="2" d="M2714.26,-217C2711.48,-216.64 2708.72,-216.31 2706,-216 2392.91,-180.74 2309.71,-225.9 1998,-180 1987.56,-178.46 1976.4,-176.06 1966.16,-173.53"/>
<polygon fill="grey" stroke="grey" stroke-width="2" points="1966.85,-170.1 1956.29,-171 1965.11,-176.88 1966.85,-170.1"/>
</g>
<!-- 18 -->
<g id="node19" class="node">
<title>18</title>
<path fill="none" stroke="#d8b456" stroke-width="2" stroke-dasharray="5,2" d="M3072,-252C3072,-252 2922,-252 2922,-252 2916,-252 2910,-246 2910,-240 2910,-240 2910,-228 2910,-228 2910,-222 2916,-216 2922,-216 2922,-216 3072,-216 3072,-216 3078,-216 3084,-222 3084,-228 3084,-228 3084,-240 3084,-240 3084,-246 3078,-252 3072,-252"/>
<text text-anchor="middle" x="2997" y="-237" font-family="sans" font-size="10.00">get_other</text>
<text text-anchor="middle" x="2997" y="-226" font-family="sans" font-size="10.00">species: Rhopilema_esculentum</text>
</g>
<!-- 18&#45;&gt;2 -->
<g id="edge40" class="edge">
<title>18&#45;&gt;2</title>
<path fill="none" stroke="grey" stroke-width="2" d="M2909.95,-217.06C2906.94,-216.67 2903.94,-216.32 2901,-216 2501.67,-172.88 2395.68,-236.33 1998,-180 1987.56,-178.52 1976.39,-176.13 1966.15,-173.61"/>
<polygon fill="grey" stroke="grey" stroke-width="2" points="1966.84,-170.17 1956.28,-171.07 1965.1,-176.95 1966.84,-170.17"/>
</g>
<!-- 19 -->
<g id="node20" class="node">
<title>19</title>
<path fill="none" stroke="#70d856" stroke-width="2" stroke-dasharray="5,2" d="M3254,-252C3254,-252 3114,-252 3114,-252 3108,-252 3102,-246 3102,-240 3102,-240 3102,-228 3102,-228 3102,-222 3108,-216 3114,-216 3114,-216 3254,-216 3254,-216 3260,-216 3266,-222 3266,-228 3266,-228 3266,-240 3266,-240 3266,-246 3260,-252 3254,-252"/>
<text text-anchor="middle" x="3184" y="-237" font-family="sans" font-size="10.00">get_other_gz</text>
<text text-anchor="middle" x="3184" y="-226" font-family="sans" font-size="10.00">species: Crassostrea_virginica</text>
</g>
<!-- 19&#45;&gt;2 -->
<g id="edge41" class="edge">
<title>19&#45;&gt;2</title>
<path fill="none" stroke="grey" stroke-width="2" d="M3101.74,-217.05C3098.8,-216.67 3095.88,-216.31 3093,-216 2608.95,-163.14 2480.35,-246.6 1998,-180 1987.55,-178.56 1976.38,-176.18 1966.15,-173.66"/>
<polygon fill="grey" stroke="grey" stroke-width="2" points="1966.83,-170.22 1956.28,-171.11 1965.09,-177 1966.83,-170.22"/>
</g>
<!-- 20 -->
<g id="node21" class="node">
<title>20</title>
<path fill="none" stroke="#70d856" stroke-width="2" stroke-dasharray="5,2" d="M3405.5,-252C3405.5,-252 3296.5,-252 3296.5,-252 3290.5,-252 3284.5,-246 3284.5,-240 3284.5,-240 3284.5,-228 3284.5,-228 3284.5,-222 3290.5,-216 3296.5,-216 3296.5,-216 3405.5,-216 3405.5,-216 3411.5,-216 3417.5,-222 3417.5,-228 3417.5,-228 3417.5,-240 3417.5,-240 3417.5,-246 3411.5,-252 3405.5,-252"/>
<text text-anchor="middle" x="3351" y="-237" font-family="sans" font-size="10.00">get_other_gz</text>
<text text-anchor="middle" x="3351" y="-226" font-family="sans" font-size="10.00">species: Hydra_vulgaris</text>
</g>
<!-- 20&#45;&gt;2 -->
<g id="edge42" class="edge">
<title>20&#45;&gt;2</title>
<path fill="none" stroke="grey" stroke-width="2" d="M3284.4,-217.34C3281.23,-216.84 3278.09,-216.38 3275,-216 2711.59,-145.71 2560.62,-256.35 1998,-180 1987.55,-178.58 1976.38,-176.21 1966.14,-173.69"/>
<polygon fill="grey" stroke="grey" stroke-width="2" points="1966.83,-170.25 1956.27,-171.14 1965.08,-177.03 1966.83,-170.25"/>
</g>
<!-- 21 -->
<g id="node22" class="node">
<title>21</title>
<path fill="none" stroke="#70d856" stroke-width="2" stroke-dasharray="5,2" d="M3580,-252C3580,-252 3448,-252 3448,-252 3442,-252 3436,-246 3436,-240 3436,-240 3436,-228 3436,-228 3436,-222 3442,-216 3448,-216 3448,-216 3580,-216 3580,-216 3586,-216 3592,-222 3592,-228 3592,-228 3592,-240 3592,-240 3592,-246 3586,-252 3580,-252"/>
<text text-anchor="middle" x="3514" y="-237" font-family="sans" font-size="10.00">get_other_gz</text>
<text text-anchor="middle" x="3514" y="-226" font-family="sans" font-size="10.00">species: Morbakka_virulenta</text>
</g>
<!-- 21&#45;&gt;2 -->
<g id="edge43" class="edge">
<title>21&#45;&gt;2</title>
<path fill="none" stroke="grey" stroke-width="2" d="M3435.84,-217.09C3432.86,-216.68 3429.91,-216.32 3427,-216 2795.46,-146.84 2627.67,-264.48 1998,-180 1987.55,-178.6 1976.38,-176.24 1966.14,-173.71"/>
<polygon fill="grey" stroke="grey" stroke-width="2" points="1966.83,-170.27 1956.27,-171.16 1965.08,-177.05 1966.83,-170.27"/>
</g>
<!-- 22 -->
<g id="node23" class="node">
<title>22</title>
<path fill="none" stroke="#70d856" stroke-width="2" stroke-dasharray="5,2" d="M3753.5,-252C3753.5,-252 3622.5,-252 3622.5,-252 3616.5,-252 3610.5,-246 3610.5,-240 3610.5,-240 3610.5,-228 3610.5,-228 3610.5,-222 3616.5,-216 3622.5,-216 3622.5,-216 3753.5,-216 3753.5,-216 3759.5,-216 3765.5,-222 3765.5,-228 3765.5,-228 3765.5,-240 3765.5,-240 3765.5,-246 3759.5,-252 3753.5,-252"/>
<text text-anchor="middle" x="3688" y="-237" font-family="sans" font-size="10.00">get_other_gz</text>
<text text-anchor="middle" x="3688" y="-226" font-family="sans" font-size="10.00">species: Orbicella_faveolata</text>
</g>
<!-- 22&#45;&gt;2 -->
<g id="edge44" class="edge">
<title>22&#45;&gt;2</title>
<path fill="none" stroke="grey" stroke-width="2" d="M3610.31,-217.14C3607.17,-216.71 3604.06,-216.33 3601,-216 2892.51,-139.39 2704.42,-273.8 1998,-180 1987.54,-178.61 1976.37,-176.25 1966.14,-173.73"/>
<polygon fill="grey" stroke="grey" stroke-width="2" points="1966.83,-170.29 1956.27,-171.18 1965.07,-177.07 1966.83,-170.29"/>
</g>
<!-- 23&#45;&gt;0 -->
<g id="edge2" class="edge">
<title>23&#45;&gt;0</title>
<path fill="none" stroke="grey" stroke-width="2" d="M2393.94,-73.24C2390.93,-72.81 2387.94,-72.4 2385,-72 2247.55,-53.3 2086.23,-35.53 1997.02,-26.07"/>
<polygon fill="grey" stroke="grey" stroke-width="2" points="1997.35,-22.58 1987.04,-25.01 1996.61,-29.55 1997.35,-22.58"/>
</g>
<!-- 24 -->
<g id="node25" class="node">
<title>24</title>
<path fill="none" stroke="#56b1d8" stroke-width="2" stroke-dasharray="5,2" d="M2140.5,-180C2140.5,-180 2019.5,-180 2019.5,-180 2013.5,-180 2007.5,-174 2007.5,-168 2007.5,-168 2007.5,-156 2007.5,-156 2007.5,-150 2013.5,-144 2019.5,-144 2019.5,-144 2140.5,-144 2140.5,-144 2146.5,-144 2152.5,-150 2152.5,-156 2152.5,-156 2152.5,-168 2152.5,-168 2152.5,-174 2146.5,-180 2140.5,-180"/>
<text text-anchor="middle" x="2080" y="-159.5" font-family="sans" font-size="10.00">emapper_build_databases</text>
</g>
<!-- 24&#45;&gt;23 -->
<g id="edge46" class="edge">
<title>24&#45;&gt;23</title>
<path fill="none" stroke="grey" stroke-width="2" d="M2152.59,-148.73C2216.49,-137.92 2310.49,-122.03 2383.69,-109.65"/>
<polygon fill="grey" stroke="grey" stroke-width="2" points="2384.6,-113.05 2393.87,-107.93 2383.43,-106.15 2384.6,-113.05"/>
</g>
<!-- 24&#45;&gt;25 -->
<g id="edge48" class="edge">
<title>24&#45;&gt;25</title>
<path fill="none" stroke="grey" stroke-width="2" d="M2152.57,-155.58C2251.79,-147.73 2435.53,-131.67 2601.8,-108.11"/>
<polygon fill="grey" stroke="grey" stroke-width="2" points="2602.31,-111.57 2611.71,-106.69 2601.32,-104.64 2602.31,-111.57"/>
</g>
<!-- 24&#45;&gt;26 -->
<g id="edge50" class="edge">
<title>24&#45;&gt;26</title>
<path fill="none" stroke="grey" stroke-width="2" d="M2152.68,-158.88C2279.12,-154.46 2547.85,-141.82 2784.04,-108.01"/>
<polygon fill="grey" stroke="grey" stroke-width="2" points="2784.8,-111.44 2794.19,-106.54 2783.79,-104.51 2784.8,-111.44"/>
</g>
<!-- 24&#45;&gt;27 -->
<g id="edge52" class="edge">
<title>24&#45;&gt;27</title>
<path fill="none" stroke="grey" stroke-width="2" d="M2152.56,-159.55C2299.42,-155.96 2642.43,-144.24 2939.15,-108.15"/>
<polygon fill="grey" stroke="grey" stroke-width="2" points="2939.74,-111.6 2949.24,-106.91 2938.89,-104.65 2939.74,-111.6"/>
</g>
<!-- 24&#45;&gt;28 -->
<g id="edge54" class="edge">
<title>24&#45;&gt;28</title>
<path fill="none" stroke="grey" stroke-width="2" d="M2152.74,-160.65C2321.58,-159.12 2753.18,-151.06 3122.65,-108.06"/>
<polygon fill="grey" stroke="grey" stroke-width="2" points="3123.21,-111.52 3132.74,-106.88 3122.4,-104.57 3123.21,-111.52"/>
</g>
<!-- 24&#45;&gt;29 -->
<g id="edge56" class="edge">
<title>24&#45;&gt;29</title>
<path fill="none" stroke="grey" stroke-width="2" d="M2152.75,-159.81C2377.8,-155.84 3061.64,-141.41 3304.49,-108"/>
<polygon fill="grey" stroke="grey" stroke-width="2" points="3305.27,-111.42 3314.68,-106.55 3304.28,-104.49 3305.27,-111.42"/>
</g>
<!-- 24&#45;&gt;30 -->
<g id="edge58" class="edge">
<title>24&#45;&gt;30</title>
<path fill="none" stroke="grey" stroke-width="2" d="M2152.84,-161.39C2355.31,-161.77 2942.1,-158.21 3438.98,-108.02"/>
<polygon fill="grey" stroke="grey" stroke-width="2" points="3439.63,-111.47 3449.23,-106.97 3438.93,-104.5 3439.63,-111.47"/>
</g>
<!-- 24&#45;&gt;31 -->
<g id="edge60" class="edge">
<title>24&#45;&gt;31</title>
<path fill="none" stroke="grey" stroke-width="2" d="M2152.82,-160.39C2417.67,-157.87 3330.13,-146.63 3642.39,-108.04"/>
<polygon fill="grey" stroke="grey" stroke-width="2" points="3642.87,-111.5 3652.35,-106.77 3641.99,-104.56 3642.87,-111.5"/>
</g>
<!-- 24&#45;&gt;32 -->
<g id="edge62" class="edge">
<title>24&#45;&gt;32</title>
<path fill="none" stroke="grey" stroke-width="2" d="M2152.78,-160.07C2433.54,-156.26 3447.24,-140.61 3791.34,-108.07"/>
<polygon fill="grey" stroke="grey" stroke-width="2" points="3791.71,-111.55 3801.33,-107.1 3791.04,-104.58 3791.71,-111.55"/>
</g>
<!-- 24&#45;&gt;33 -->
<g id="edge64" class="edge">
<title>24&#45;&gt;33</title>
<path fill="none" stroke="grey" stroke-width="2" d="M2007.47,-148.86C1993.41,-146.91 1978.78,-145.16 1965,-144 1584,-112.01 629.28,-154.13 231.69,-108.03"/>
<polygon fill="grey" stroke="grey" stroke-width="2" points="231.88,-104.52 221.53,-106.81 231.05,-111.47 231.88,-104.52"/>
</g>
<!-- 24&#45;&gt;34 -->
<g id="edge66" class="edge">
<title>24&#45;&gt;34</title>
<path fill="none" stroke="grey" stroke-width="2" d="M2007.46,-148.9C1993.41,-146.94 1978.77,-145.18 1965,-144 1302.21,-87.3 1128.97,-164.2 463.1,-108.12"/>
<polygon fill="grey" stroke="grey" stroke-width="2" points="463.03,-104.6 452.77,-107.24 462.43,-111.57 463.03,-104.6"/>
</g>
<!-- 24&#45;&gt;35 -->
<g id="edge68" class="edge">
<title>24&#45;&gt;35</title>
<path fill="none" stroke="grey" stroke-width="2" d="M2007.46,-148.93C1993.41,-146.97 1978.77,-145.2 1965,-144 1370.4,-92.31 1212.52,-180.04 616.05,-107.96"/>
<polygon fill="grey" stroke="grey" stroke-width="2" points="616.25,-104.46 605.9,-106.73 615.4,-111.41 616.25,-104.46"/>
</g>
<!-- 24&#45;&gt;36 -->
<g id="edge70" class="edge">
<title>24&#45;&gt;36</title>
<path fill="none" stroke="grey" stroke-width="2" d="M2007.46,-148.97C1993.41,-147.01 1978.77,-145.23 1965,-144 1450.09,-98.18 1313.9,-163.61 796.32,-108.03"/>
<polygon fill="grey" stroke="grey" stroke-width="2" points="796.67,-104.55 786.35,-106.95 795.91,-111.51 796.67,-104.55"/>
</g>
<!-- 24&#45;&gt;37 -->
<g id="edge72" class="edge">
<title>24&#45;&gt;37</title>
<path fill="none" stroke="grey" stroke-width="2" d="M2007.45,-149.03C1993.4,-147.07 1978.77,-145.26 1965,-144 1527.23,-103.86 1410.81,-157.8 970.3,-108.03"/>
<polygon fill="grey" stroke="grey" stroke-width="2" points="970.5,-104.53 960.16,-106.87 969.7,-111.49 970.5,-104.53"/>
</g>
<!-- 24&#45;&gt;38 -->
<g id="edge74" class="edge">
<title>24&#45;&gt;38</title>
<path fill="none" stroke="grey" stroke-width="2" d="M2007.44,-149.1C1993.39,-147.13 1978.76,-145.31 1965,-144 1593.2,-108.71 1493.15,-157.52 1119.65,-108.08"/>
<polygon fill="grey" stroke="grey" stroke-width="2" points="1120.03,-104.6 1109.65,-106.74 1119.1,-111.54 1120.03,-104.6"/>
</g>
<!-- 24&#45;&gt;39 -->
<g id="edge76" class="edge">
<title>24&#45;&gt;39</title>
<path fill="none" stroke="grey" stroke-width="2" d="M2007.43,-149.21C1993.38,-147.23 1978.76,-145.37 1965,-144 1662.72,-113.84 1581.1,-148.08 1276.64,-108.09"/>
<polygon fill="grey" stroke="grey" stroke-width="2" points="1277.02,-104.61 1266.64,-106.77 1276.09,-111.55 1277.02,-104.61"/>
</g>
<!-- 24&#45;&gt;40 -->
<g id="edge78" class="edge">
<title>24&#45;&gt;40</title>
<path fill="none" stroke="grey" stroke-width="2" d="M2007.41,-149.44C1993.36,-147.44 1978.74,-145.51 1965,-144 1749.5,-120.25 1691.25,-134.4 1471.85,-108.02"/>
<polygon fill="grey" stroke="grey" stroke-width="2" points="1471.96,-104.51 1461.62,-106.78 1471.12,-111.46 1471.96,-104.51"/>
</g>
<!-- 24&#45;&gt;41 -->
<g id="edge80" class="edge">
<title>24&#45;&gt;41</title>
<path fill="none" stroke="grey" stroke-width="2" d="M2007.35,-149.93C1993.31,-147.88 1978.7,-145.82 1965,-144 1832.43,-126.41 1796.13,-128.1 1659.99,-108.1"/>
<polygon fill="grey" stroke="grey" stroke-width="2" points="1660.42,-104.62 1650.02,-106.62 1659.39,-111.55 1660.42,-104.62"/>
</g>
<!-- 24&#45;&gt;42 -->
<g id="edge82" class="edge">
<title>24&#45;&gt;42</title>
<path fill="none" stroke="grey" stroke-width="2" d="M2007.12,-145.72C1956.07,-135.03 1887.6,-120.68 1833.58,-109.36"/>
<polygon fill="grey" stroke="grey" stroke-width="2" points="1834.18,-105.9 1823.67,-107.28 1832.74,-112.76 1834.18,-105.9"/>
</g>
<!-- 24&#45;&gt;43 -->
<g id="edge84" class="edge">
<title>24&#45;&gt;43</title>
<path fill="none" stroke="grey" stroke-width="2" d="M2043.06,-143.88C2022.51,-134.35 1996.75,-122.41 1974.91,-112.28"/>
<polygon fill="grey" stroke="grey" stroke-width="2" points="1976.36,-109.1 1965.82,-108.07 1973.42,-115.45 1976.36,-109.1"/>
</g>
<!-- 24&#45;&gt;44 -->
<g id="edge86" class="edge">
<title>24&#45;&gt;44</title>
<path fill="none" stroke="grey" stroke-width="2" d="M2088.16,-143.7C2091.91,-135.73 2096.45,-126.1 2100.62,-117.26"/>
<polygon fill="grey" stroke="grey" stroke-width="2" points="2103.84,-118.64 2104.94,-108.1 2097.51,-115.66 2103.84,-118.64"/>
</g>
<!-- 24&#45;&gt;45 -->
<g id="edge88" class="edge">
<title>24&#45;&gt;45</title>
<path fill="none" stroke="grey" stroke-width="2" d="M2131.83,-143.97C2161.85,-134.1 2199.82,-121.62 2231.37,-111.25"/>
<polygon fill="grey" stroke="grey" stroke-width="2" points="2232.53,-114.56 2240.93,-108.11 2230.34,-107.91 2232.53,-114.56"/>
</g>
<!-- 25&#45;&gt;0 -->
<g id="edge3" class="edge">
<title>25&#45;&gt;0</title>
<path fill="none" stroke="grey" stroke-width="2" d="M2611.72,-73.22C2608.78,-72.79 2605.87,-72.38 2603,-72 2382.81,-42.86 2119.86,-27.84 1997.69,-21.99"/>
<polygon fill="grey" stroke="grey" stroke-width="2" points="1997.52,-18.48 1987.37,-21.5 1997.19,-25.47 1997.52,-18.48"/>
</g>
<!-- 26&#45;&gt;0 -->
<g id="edge4" class="edge">
<title>26&#45;&gt;0</title>
<path fill="none" stroke="grey" stroke-width="2" d="M2794.2,-73.41C2791.1,-72.89 2788.02,-72.42 2785,-72 2493.9,-31.51 2142.8,-21.95 1997.29,-19.69"/>
<polygon fill="grey" stroke="grey" stroke-width="2" points="1997.22,-16.19 1987.17,-19.54 1997.12,-23.19 1997.22,-16.19"/>
</g>
<!-- 27&#45;&gt;0 -->
<g id="edge5" class="edge">
<title>27&#45;&gt;0</title>
<path fill="none" stroke="grey" stroke-width="2" d="M2949.24,-73.06C2946.47,-72.68 2943.71,-72.32 2941,-72 2587.78,-29.94 2161.25,-21.26 1997.53,-19.47"/>
<polygon fill="grey" stroke="grey" stroke-width="2" points="1997.17,-15.96 1987.13,-19.36 1997.09,-22.96 1997.17,-15.96"/>
</g>
<!-- 28&#45;&gt;0 -->
<g id="edge6" class="edge">
<title>28&#45;&gt;0</title>
<path fill="none" stroke="grey" stroke-width="2" d="M3132.74,-73.1C3129.79,-72.7 3126.87,-72.33 3124,-72 2697.27,-22.92 2180,-18.55 1997.07,-18.68"/>
<polygon fill="grey" stroke="grey" stroke-width="2" points="1997.05,-15.18 1987.06,-18.7 1997.06,-22.18 1997.05,-15.18"/>
</g>
<!-- 29&#45;&gt;0 -->
<g id="edge7" class="edge">
<title>29&#45;&gt;0</title>
<path fill="none" stroke="grey" stroke-width="2" d="M3314.68,-73.43C3311.76,-72.9 3308.85,-72.41 3306,-72 3049.08,-34.88 2238.26,-22.61 1997.22,-19.73"/>
<polygon fill="grey" stroke="grey" stroke-width="2" points="1997.23,-16.23 1987.19,-19.61 1997.15,-23.23 1997.23,-16.23"/>
</g>
<!-- 30&#45;&gt;0 -->
<g id="edge8" class="edge">
<title>30&#45;&gt;0</title>
<path fill="none" stroke="grey" stroke-width="2" d="M3449.23,-73.01C3446.12,-72.64 3443.04,-72.31 3440,-72 3154.38,-43.31 2253.86,-24.96 1997.63,-20.22"/>
<polygon fill="grey" stroke="grey" stroke-width="2" points="1997.41,-16.71 1987.35,-20.03 1997.29,-23.71 1997.41,-16.71"/>
</g>
<!-- 31&#45;&gt;0 -->
<g id="edge9" class="edge">
<title>31&#45;&gt;0</title>
<path fill="none" stroke="grey" stroke-width="2" d="M3652.35,-73.22C3649.54,-72.76 3646.75,-72.35 3644,-72 3317.31,-29.84 2275.15,-20.97 1997.51,-19.34"/>
<polygon fill="grey" stroke="grey" stroke-width="2" points="1997.2,-15.83 1987.18,-19.28 1997.16,-22.83 1997.2,-15.83"/>
</g>
<!-- 32&#45;&gt;0 -->
<g id="edge10" class="edge">
<title>32&#45;&gt;0</title>
<path fill="none" stroke="grey" stroke-width="2" d="M3801.33,-72.89C3798.52,-72.57 3795.74,-72.27 3793,-72 3434.17,-36.87 2288.71,-22.75 1997.07,-19.67"/>
<polygon fill="grey" stroke="grey" stroke-width="2" points="1997.09,-16.17 1987.06,-19.57 1997.02,-23.17 1997.09,-16.17"/>
</g>
<!-- 33&#45;&gt;0 -->
<g id="edge11" class="edge">
<title>33&#45;&gt;0</title>
<path fill="none" stroke="grey" stroke-width="2" d="M221.54,-73.22C224.39,-72.77 227.22,-72.36 230,-72 553.52,-30.68 1584.94,-21.2 1860.67,-19.38"/>
<polygon fill="grey" stroke="grey" stroke-width="2" points="1860.95,-22.88 1870.93,-19.32 1860.91,-15.88 1860.95,-22.88"/>
</g>
<!-- 34&#45;&gt;0 -->
<g id="edge12" class="edge">
<title>34&#45;&gt;0</title>
<path fill="none" stroke="grey" stroke-width="2" d="M452.77,-72.81C455.54,-72.52 458.29,-72.25 461,-72 998.58,-22.71 1650.82,-18.7 1860.56,-18.78"/>
<polygon fill="grey" stroke="grey" stroke-width="2" points="1860.8,-22.28 1870.81,-18.79 1860.81,-15.28 1860.8,-22.28"/>
</g>
<!-- 35&#45;&gt;0 -->
<g id="edge13" class="edge">
<title>35&#45;&gt;0</title>
<path fill="none" stroke="grey" stroke-width="2" d="M605.91,-73.32C608.97,-72.83 612.01,-72.39 615,-72 859.58,-40.32 1627.14,-24.37 1860.82,-20.16"/>
<polygon fill="grey" stroke="grey" stroke-width="2" points="1860.95,-23.65 1870.88,-19.98 1860.82,-16.65 1860.95,-23.65"/>
</g>
<!-- 36&#45;&gt;0 -->
<g id="edge14" class="edge">
<title>36&#45;&gt;0</title>
<path fill="none" stroke="grey" stroke-width="2" d="M786.36,-73.1C789.27,-72.7 792.16,-72.33 795,-72 1197.09,-24.86 1684,-19.25 1860.75,-18.87"/>
<polygon fill="grey" stroke="grey" stroke-width="2" points="1860.95,-22.37 1870.94,-18.85 1860.93,-15.37 1860.95,-22.37"/>
</g>
<!-- 37&#45;&gt;0 -->
<g id="edge15" class="edge">
<title>37&#45;&gt;0</title>
<path fill="none" stroke="grey" stroke-width="2" d="M960.17,-73.2C963.15,-72.76 966.1,-72.36 969,-72 1301.67,-30.52 1703.23,-21.5 1860.83,-19.54"/>
<polygon fill="grey" stroke="grey" stroke-width="2" points="1860.9,-23.04 1870.86,-19.42 1860.82,-16.04 1860.9,-23.04"/>
</g>
<!-- 38&#45;&gt;0 -->
<g id="edge16" class="edge">
<title>38&#45;&gt;0</title>
<path fill="none" stroke="grey" stroke-width="2" d="M1109.66,-73.34C1112.47,-72.85 1115.26,-72.4 1118,-72 1391.08,-31.97 1720.33,-22.17 1860.48,-19.77"/>
<polygon fill="grey" stroke="grey" stroke-width="2" points="1860.7,-23.27 1870.64,-19.61 1860.59,-16.27 1860.7,-23.27"/>
</g>
<!-- 39&#45;&gt;0 -->
<g id="edge17" class="edge">
<title>39&#45;&gt;0</title>
<path fill="none" stroke="grey" stroke-width="2" d="M1266.66,-73.34C1269.47,-72.86 1272.26,-72.41 1275,-72 1487.4,-40.39 1741.6,-26.6 1860.88,-21.52"/>
<polygon fill="grey" stroke="grey" stroke-width="2" points="1861.12,-25.01 1870.96,-21.1 1860.83,-18.02 1861.12,-25.01"/>
</g>
<!-- 40&#45;&gt;0 -->
<g id="edge18" class="edge">
<title>40&#45;&gt;0</title>
<path fill="none" stroke="grey" stroke-width="2" d="M1461.64,-73.39C1464.8,-72.91 1467.92,-72.44 1471,-72 1608.88,-52.08 1770.97,-34.75 1860.63,-25.69"/>
<polygon fill="grey" stroke="grey" stroke-width="2" points="1861.06,-29.17 1870.66,-24.68 1860.36,-22.2 1861.06,-29.17"/>
</g>
<!-- 41&#45;&gt;0 -->
<g id="edge19" class="edge">
<title>41&#45;&gt;0</title>
<path fill="none" stroke="grey" stroke-width="2" d="M1650.34,-72.59C1714.5,-60.25 1801.24,-43.57 1860.81,-32.11"/>
<polygon fill="grey" stroke="grey" stroke-width="2" points="1861.71,-35.51 1870.87,-30.18 1860.38,-28.63 1861.71,-35.51"/>
</g>
<!-- 42&#45;&gt;0 -->
<g id="edge20" class="edge">
<title>42&#45;&gt;0</title>
<path fill="none" stroke="grey" stroke-width="2" d="M1790.77,-71.88C1816.12,-62.18 1848.01,-49.98 1874.77,-39.74"/>
<polygon fill="grey" stroke="grey" stroke-width="2" points="1876.29,-42.91 1884.38,-36.07 1873.79,-36.37 1876.29,-42.91"/>
</g>
<!-- 43&#45;&gt;0 -->
<g id="edge21" class="edge">
<title>43&#45;&gt;0</title>
<path fill="none" stroke="grey" stroke-width="2" d="M1929,-71.7C1929,-63.98 1929,-54.71 1929,-46.11"/>
<polygon fill="grey" stroke="grey" stroke-width="2" points="1932.5,-46.1 1929,-36.1 1925.5,-46.1 1932.5,-46.1"/>
</g>
<!-- 44&#45;&gt;0 -->
<g id="edge22" class="edge">
<title>44&#45;&gt;0</title>
<path fill="none" stroke="grey" stroke-width="2" d="M2067.99,-71.88C2042.5,-62.18 2010.43,-49.98 1983.52,-39.74"/>
<polygon fill="grey" stroke="grey" stroke-width="2" points="1984.46,-36.35 1973.87,-36.07 1981.97,-42.9 1984.46,-36.35"/>
</g>
<!-- 45&#45;&gt;0 -->
<g id="edge23" class="edge">
<title>45&#45;&gt;0</title>
<path fill="none" stroke="grey" stroke-width="2" d="M2210.4,-73.12C2145.93,-60.72 2057.44,-43.7 1997.01,-32.08"/>
<polygon fill="grey" stroke="grey" stroke-width="2" points="1997.67,-28.64 1987.19,-30.19 1996.35,-35.52 1997.67,-28.64"/>
</g>
</g>
</svg>
